# xmcd
#
# Track frame offsets: 
#        150
#        16425
#        31637
#        46412
#        56737
#        68495
#        80310
#        96612
#        110587
#        142275
#        155837
#        170625
#
# Disc length: 2477 seconds
#
# Revision: 1
# Processed by: cddbd v1.5.2PL0 Copyright (c) Steve Scherf et al.
# Submitted via: ExactAudioCopy v1.0b3
#
DISCID=a709ab0c
DTITLE=The Brunning Sunflower Band - Trackside Blues
DYEAR=1983
DGENRE=Blues
TTITLE0=Ride With Your Daddy Tonight
TTITLE1=Tube Train Blues
TTITLE2=Sunflower Shuffle
TTITLE3=Simple Simon
TTITLE4=I Met This Bird In Playboy
TTITLE5=Ah! Soul
TTITLE6=It Takes Time
TTITLE7=Baby You're The Real Thing
TTITLE8=If You Let Me Love You
TTITLE9=North Star
TTITLE10=Closing Hours
TTITLE11=Uranus (Take II)
EXTD=
EXTT0=
EXTT1=
EXTT2=
EXTT3=
EXTT4=
EXTT5=
EXTT6=
EXTT7=
EXTT8=
EXTT9=
EXTT10=
EXTT11=
PLAYORDER=
